<?xml version="1.0" standalone="no"?>
<!DOCTYPE svg PUBLIC "-//W3C//DTD SVG 20010904//EN"
 "http://www.w3.org/TR/2001/REC-SVG-20010904/DTD/svg10.dtd">
<svg version="1.0" xmlns="http://www.w3.org/2000/svg"
 width="512.000000pt" height="512.000000pt" viewBox="0 0 512.000000 512.000000"
 preserveAspectRatio="xMidYMid meet">

<g transform="translate(0.000000,512.000000) scale(0.100000,-0.100000)"
fill="#52aea5" stroke="none">
<path d="M2075 5114 c-38 -2 -169 -8 -290 -14 -417 -20 -868 -61 -994 -91
-204 -47 -408 -185 -537 -364 -55 -76 -121 -221 -143 -316 -28 -121 -63 -496
-93 -994 -16 -276 -16 -1274 0 -1550 30 -497 65 -873 93 -994 47 -204 185
-408 364 -537 76 -55 221 -121 316 -143 119 -28 511 -65 989 -93 284 -17 1266
-17 1550 0 516 30 875 64 999 93 95 22 240 88 316 143 179 129 317 333 364
537 28 121 64 500 93 994 16 278 16 1275 0 1550 -30 498 -65 873 -93 994 -76
327 -353 604 -680 680 -117 28 -426 58 -889 87 -226 14 -1186 27 -1365 18z
m755 -980 c52 -9 149 -33 215 -55 779 -251 1237 -1047 1064 -1847 -100 -460
-405 -854 -830 -1071 -418 -213 -910 -230 -1346 -45 l-82 35 -400 -95 c-220
-53 -407 -96 -417 -96 -27 0 -54 30 -54 61 0 15 36 201 80 414 44 213 80 394
80 403 0 8 -18 59 -40 112 -87 213 -122 389 -123 615 -2 334 84 617 272 896
255 381 679 636 1146 689 106 12 317 4 435 -16z"/>
<path d="M2455 3814 c-140 -19 -193 -30 -281 -59 -194 -63 -349 -159 -494
-305 -185 -185 -298 -403 -345 -663 -14 -78 -16 -131 -12 -260 7 -219 42 -349
149 -561 l35 -69 -50 -243 c-28 -134 -48 -246 -46 -248 2 -3 108 20 234 50
127 29 238 54 248 54 9 0 57 -20 105 -44 192 -96 341 -131 562 -131 268 0 478
63 704 212 95 63 260 229 325 328 254 387 282 865 74 1268 -171 330 -489 573
-849 646 -97 20 -297 34 -359 25z m-370 -488 c38 -16 47 -32 136 -233 32 -75
59 -150 59 -169 0 -24 -14 -51 -55 -105 -67 -88 -71 -120 -24 -195 40 -63 209
-230 319 -316 151 -116 224 -147 283 -117 12 6 47 36 78 65 77 76 87 76 299
15 150 -43 179 -54 203 -81 41 -45 37 -93 -13 -167 -47 -72 -132 -153 -187
-181 -91 -47 -254 -53 -398 -14 -250 67 -549 278 -771 545 -177 211 -248 375
-249 567 0 99 2 109 33 173 22 44 58 92 103 138 90 91 118 102 184 75z"/>
</g>
</svg>
